<svg xmlns="http://www.w3.org/2000/svg" width="137.482" height="36.648" viewBox="0 0 137.482 36.648">
  <g id="Group_8324" data-name="Group 8324" transform="translate(-56 -300.001)">
    <path id="Path_103" data-name="Path 103" d="M630.42,400.057c5.426,3.26,15.873,2.12,15.96-6.1-.39-4.819-3.321-4.982-6.633-7.365-1.025-.737-1.866-1.7-.843-3.084,1.1-1.486,4.165-1.747,7.325-.34l1.6-4.078c-4.572-2.271-12.977-1.291-14.407,4.788a5.825,5.825,0,0,0,1.932,5.873,34.1,34.1,0,0,0,3.961,2.564c1.654,1.1,2.8,2.471,1.023,4.329-1.743,1.285-5.216,1.04-8.245-.62l-1.668,4.029" transform="translate(-574.42 -76.408)" fill="#fff"/>
    <path id="Path_104" data-name="Path 104" d="M675.975,403.044c4.776.022,8.708-.587,10.157-3.051a4.517,4.517,0,0,0,.593-2.139c.423-4.658-4.166-6-7.9-5.227-4.242,1.23-7.432,4.688-7.6,10.268.13,4.4,2.581,6.433,6.005,6.87a13.393,13.393,0,0,0,5.049-.345,14.116,14.116,0,0,0,2.4-.891q-.186-1.816-.371-3.633a8.58,8.58,0,0,1-6.413.852,2.655,2.655,0,0,1-1.928-2.705m.461-3.6a5.136,5.136,0,0,1,1.208-2.3,3.392,3.392,0,0,1,3.816-.863,1.153,1.153,0,0,1,.686.862c.245,1.4-1.1,1.862-2.242,2.081a16.467,16.467,0,0,1-3.468.218" transform="translate(-597.273 -84.499)" fill="#fff"/>
    <path id="Path_105" data-name="Path 105" d="M710.2,392.7c-.434,5.575-1.7,11.2-2.716,16.738,1.636.029,3.273-.066,4.908-.036a63.54,63.54,0,0,1,2.076-9.255,4.873,4.873,0,0,1,5.118-3.015q.435-2.376.868-4.753c-2.1-.287-4.2.524-6.306,3.747.076-1.142.211-2.285.287-3.427H710.2" transform="translate(-617.575 -84.446)" fill="#fff"/>
    <path id="Path_106" data-name="Path 106" d="M738.832,393.286l5.052.018,1.243,11.88,5.35-11.889,5.453.018-9.309,16.673-5.006-.056Z" transform="translate(-635.128 -84.983)" fill="#fff"/>
    <path id="Path_107" data-name="Path 107" d="M788.831,409.476H784.3l.2-3.334a6.719,6.719,0,0,1-4.452,3.6,5.163,5.163,0,0,1-4.529-1.116c-2.191-2-2.421-6.016-.2-10.695,3.48-5.552,9.283-6.5,15.911-4.707-.8,5.417-2.446,9.5-2.4,16.253m-3.113-13.146c-2.333-.684-4.9.583-6.3,4.25-.89,2.922-.456,4.27.4,4.89a2.255,2.255,0,0,0,3.046-.554,6.068,6.068,0,0,0,.95-1.323,11.054,11.054,0,0,0,1.117-3.345q.4-1.958.793-3.918" transform="translate(-653.688 -84.487)" fill="#fff"/>
    <path id="Path_108" data-name="Path 108" d="M817.816,393.24h4.959l-3.116,16.669h-4.982Z" transform="translate(-677.6 -84.957)" fill="#fff"/>
    <path id="Path_109" data-name="Path 109" d="M825.9,381.916c-2.259-.141-3.053-2.222-1.936-4.07a2.75,2.75,0,0,1,3.475-.963,2.163,2.163,0,0,1,1.257,1.743,2.744,2.744,0,0,1-1.857,3.1,3.915,3.915,0,0,1-.938.187" transform="translate(-682.522 -75.647)" fill="#fff"/>
    <path id="Path_110" data-name="Path 110" d="M849.695,400.316h-4.449l.168-2.853a6.039,6.039,0,0,1-4.423,3.119,5.054,5.054,0,0,1-4.447-1.219c-2.191-2-2.641-5.976-.417-10.656,2.665-4.249,6.134-6.074,10.987-5.227a2.862,2.862,0,0,1,.418.108L848.9,376.1l4.956-.055c-1.462,7.624-3.609,16.476-4.166,24.271m-2.94-12.786c-2.8-1.586-5.512.371-6.542,3.577-.89,2.922-.252,4.583.6,5.2a2.619,2.619,0,0,0,3.331-.528,5.987,5.987,0,0,0,.894-1.323,11.186,11.186,0,0,0,1.051-3.389c.264-1.306.4-2.234.667-3.54" transform="translate(-688.793 -75.328)" fill="#fff"/>
    <path id="Path_111" data-name="Path 111" d="M882.613,382.945h8l1.968-7.712c.105-.411.349-.77.773-.773l6.875-.042c.425,0,.878.361.773.773l-1.969,7.754h7.948c.425,0,.89.365.773.773l-1.962,6.838c-.117.408-.348.773-.773.773H896.9l-1.96,7.721c-.1.4-.34.753-.755.755l-6.917.022c-.425,0-.877-.361-.773-.773l1.972-7.725h-7.488c-.425,0-.872-.359-.773-.773l1.648-6.856c.1-.4.34-.755.755-.755" transform="translate(-714.289 -74.417)" fill="#d90010"/>
    <path id="Path_112" data-name="Path 112" d="M891.861,392.549c.119-.559-.272-.866-.8-.869l-7.374-.045,1.179-4.877a.9.9,0,0,1,.857-.766l6.873.008a1.728,1.728,0,0,0,.576-.078,1.075,1.075,0,0,0,.283-.143.423.423,0,0,0,.206-.32L895.5,378.2a.9.9,0,0,1,.86-.762l5.063.061-2.114,8.419c0,.02-.013.056-.019.091h.01l8.511.013-1.464,5a.908.908,0,0,1-.853.746l-7.718-.047-2.17,8.458-5.664-.037Z" transform="translate(-716.243 -76.106)" fill="#fff"/>
    <path id="Path_113" data-name="Path 113" d="M895.966,400.3l2.171-8.458,8.056.049c.238,0,.367-.205.434-.435l1.3-4.448L900,386.991c-.462,0-.506-.273-.414-.632l1.979-7.885-4.514-.054c-.238,0-.376.2-.434.434l-1.84,7.263a.835.835,0,0,1-.373.566,1.488,1.488,0,0,1-.4.2,2.121,2.121,0,0,1-.716.1l-6.873-.008c-.238,0-.378.2-.434.435l-1.051,4.344,6.826.042a1.136,1.136,0,0,1,1.223,1.4l-1.789,7.063Z" transform="translate(-716.942 -76.658)" fill="#fff"/>
    <path id="Path_114" data-name="Path 114" d="M936.129,379.648a1.832,1.832,0,0,1,.89.232,1.678,1.678,0,0,1,.67.666,1.812,1.812,0,0,1,0,1.805,1.709,1.709,0,0,1-.667.667,1.808,1.808,0,0,1-1.8,0,1.708,1.708,0,0,1-.667-.667,1.808,1.808,0,0,1,0-1.805,1.677,1.677,0,0,1,.67-.666,1.837,1.837,0,0,1,.891-.232m0,.354a1.471,1.471,0,0,0-.714.186,1.349,1.349,0,0,0-.538.535,1.455,1.455,0,0,0,0,1.454,1.368,1.368,0,0,0,.536.537,1.448,1.448,0,0,0,1.443,0,1.386,1.386,0,0,0,.535-.537,1.453,1.453,0,0,0,0-1.454,1.349,1.349,0,0,0-.539-.535,1.479,1.479,0,0,0-.715-.186m-.818,2.416h.389v-.786h.1a.426.426,0,0,1,.269.081,1.261,1.261,0,0,1,.269.395l.161.31h.48l-.226-.386c-.08-.136-.127-.214-.141-.233a.943.943,0,0,0-.129-.147.481.481,0,0,0-.134-.072.617.617,0,0,0,.38-.183.5.5,0,0,0,.136-.354.538.538,0,0,0-.072-.275.482.482,0,0,0-.179-.184.747.747,0,0,0-.3-.077q-.066,0-.612,0h-.389Zm.389-1.088h.157a1.97,1.97,0,0,0,.419-.026.246.246,0,0,0,.128-.091.241.241,0,0,0,.048-.147.231.231,0,0,0-.046-.143.25.25,0,0,0-.131-.089,1.869,1.869,0,0,0-.417-.027H935.7Z" transform="translate(-744.6 -77.346)" fill="#fff"/>
    <path id="Path_2103" data-name="Path 2103" d="M2.573-7.151H1.311L.62-2.241h.67l.249-1.8h.634c1.568,0,2.109-.9,2.109-1.81C4.283-6.738,3.642-7.151,2.573-7.151ZM2.188-4.579h-.57L1.9-6.624h.62c.641,0,1.048.192,1.048.77C3.57-5.22,3.3-4.579,2.188-4.579Zm5.651-1.5c-1.461,0-2,1.461-2,2.487,0,.862.428,1.44,1.2,1.44a1.436,1.436,0,0,0,1.119-.627.664.664,0,0,0,.663.627L9-2.6c-.235-.093-.264-.228-.228-.492l.385-2.665A2.9,2.9,0,0,0,7.839-6.083Zm.014.52a1.406,1.406,0,0,1,.613.121L8.174-3.367c-.292.392-.584.691-1,.691-.4,0-.634-.285-.634-.912C6.535-4.429,6.9-5.562,7.853-5.562Zm4.9-2.024-.656.078L11.36-2.241h.649l.314-2.252c.321-.734.82-1.069,1.219-1.069a.368.368,0,0,1,.406.406c0,.52-.363.834-1.247,1.083l.9,1.832h.727L13.476-3.9a1.411,1.411,0,0,0,1.162-1.326.851.851,0,0,0-.912-.855,1.562,1.562,0,0,0-1.283.741Zm4.91.677a.478.478,0,0,0,.492-.485.4.4,0,0,0-.42-.406.478.478,0,0,0-.492.485A.4.4,0,0,0,17.667-6.909ZM17.838-6h-.649l-.527,3.756h.649Zm3.7-.086c-.976,0-1.418.57-1.418,1.069s.285.805,1,1.026c.6.185.791.314.791.691,0,.249-.185.613-.848.613a1.592,1.592,0,0,1-1.048-.392l-.371.378a1.916,1.916,0,0,0,1.39.542c.784,0,1.561-.371,1.561-1.2,0-.592-.356-.905-1.062-1.126-.506-.157-.755-.271-.755-.57s.292-.506.748-.506a1.462,1.462,0,0,1,.919.335l.321-.392A1.775,1.775,0,0,0,21.536-6.083Zm4.376.592h.812L26.867-6h-.884l.128-.926-.513.057L25.363-6h-.677l-.071.506h.649L24.95-3.246c-.1.7.242,1.09.891,1.09a1.534,1.534,0,0,0,.834-.249l-.214-.456a1.167,1.167,0,0,1-.542.157c-.278,0-.378-.15-.321-.527Zm4.618-.592c-1.461,0-2,1.461-2,2.487,0,.862.428,1.44,1.2,1.44a1.436,1.436,0,0,0,1.119-.627.664.664,0,0,0,.663.627l.185-.449c-.235-.093-.264-.228-.228-.492l.385-2.665A2.9,2.9,0,0,0,30.53-6.083Zm.014.52a1.406,1.406,0,0,1,.613.121l-.292,2.074c-.292.392-.584.691-1,.691-.4,0-.634-.285-.634-.912C29.226-4.429,29.589-5.562,30.544-5.562Zm5.837-.52a1.619,1.619,0,0,0-1.3.82L35.134-6h-.556l-.527,3.756H34.7l.314-2.252c.3-.534.713-1.04,1.19-1.04.285,0,.47.143.4.67l-.371,2.623h.649l.371-2.637C37.357-5.626,37.008-6.083,36.381-6.083Zm4.048-1.525a.462.462,0,0,0-.492.449.378.378,0,0,0,.157.328l-.463,1.1h.435l.62-1a.758.758,0,0,0,.164-.485A.394.394,0,0,0,40.429-7.608Zm3.5,1.525c-.976,0-1.418.57-1.418,1.069s.285.805,1,1.026c.6.185.791.314.791.691,0,.249-.185.613-.848.613a1.592,1.592,0,0,1-1.048-.392l-.371.378a1.916,1.916,0,0,0,1.39.542c.784,0,1.561-.371,1.561-1.2,0-.592-.356-.905-1.062-1.126-.506-.157-.755-.271-.755-.57s.292-.506.748-.506a1.462,1.462,0,0,1,.919.335l.321-.392A1.775,1.775,0,0,0,43.928-6.083Zm10.64-1.069h-.634l-.378,2.658a11.541,11.541,0,0,0-.107,1.675L52.038-7.151h-.884l-.691,4.91H51.1l.314-2.231a15.656,15.656,0,0,0,.185-2.1L53-2.241h.877Zm3.506,5c1.475,0,1.938-1.468,1.938-2.373A1.366,1.366,0,0,0,58.58-6.083c-1.468,0-1.946,1.447-1.946,2.373A1.371,1.371,0,0,0,58.074-2.156Zm.021-.527c-.506,0-.777-.3-.777-.955,0-.72.264-1.917,1.24-1.917.5,0,.77.3.77.955C59.328-3.88,59.072-2.683,58.1-2.683Zm4.24.527A.535.535,0,0,0,62.87-2.7a.434.434,0,0,0-.449-.449.534.534,0,0,0-.527.542A.433.433,0,0,0,62.336-2.156ZM70.8-7.009h-.577L68.636-6.1l.221.527,1.19-.677-.57,4.005h.656Zm7.44-.143H76.981l-.691,4.91h.67l.249-1.8h.634c1.568,0,2.109-.9,2.109-1.81C79.953-6.738,79.311-7.151,78.242-7.151Zm-.385,2.573h-.57l.285-2.045h.62c.641,0,1.048.192,1.048.77C79.24-5.22,78.969-4.579,77.858-4.579Zm6.079-1.5a1.514,1.514,0,0,0-1.24.791l.328-2.28-.656.071-.741,5.259h.649l.306-2.252c.3-.534.72-1.04,1.219-1.04.271,0,.449.143.378.67l-.371,2.623h.649L84.834-4.9C84.934-5.626,84.592-6.083,83.936-6.083Zm5.2,0c-1.461,0-2,1.461-2,2.487,0,.862.428,1.44,1.2,1.44a1.436,1.436,0,0,0,1.119-.627.664.664,0,0,0,.663.627L90.3-2.6c-.235-.093-.264-.228-.228-.492l.385-2.665A2.9,2.9,0,0,0,89.139-6.083Zm.014.52a1.406,1.406,0,0,1,.613.121l-.292,2.074c-.292.392-.584.691-1,.691-.4,0-.634-.285-.634-.912C87.835-4.429,88.2-5.562,89.153-5.562Zm5.644-.52a1.269,1.269,0,0,0-1.09.855L93.75-6h-.556l-.527,3.756h.649L93.6-4.23c.264-.763.592-1.2,1.076-1.2a1.064,1.064,0,0,1,.306.036l.192-.634A1.562,1.562,0,0,0,94.8-6.083Zm6.307,0a1.566,1.566,0,0,0-1.233.763.809.809,0,0,0-.82-.763,1.546,1.546,0,0,0-1.226.805L97.883-6h-.556L96.8-2.241h.649l.306-2.252c.3-.534.677-1.04,1.09-1.04.235,0,.442.107.363.67l-.371,2.623h.649L99.807-4.5c.306-.534.677-1.033,1.083-1.033.242,0,.449.107.371.67l-.371,2.623h.649l.378-2.672C102.017-5.626,101.667-6.083,101.1-6.083Zm5.117,0c-1.461,0-2,1.461-2,2.487,0,.862.428,1.44,1.2,1.44a1.436,1.436,0,0,0,1.119-.627.664.664,0,0,0,.663.627l.185-.449c-.235-.093-.264-.228-.228-.492l.385-2.665A2.9,2.9,0,0,0,106.221-6.083Zm.014.52a1.406,1.406,0,0,1,.613.121l-.292,2.074c-.292.392-.584.691-1,.691-.4,0-.634-.285-.634-.912C104.917-4.429,105.28-5.562,106.235-5.562Zm5.381-.52c-1.39,0-1.9,1.411-1.9,2.395a1.346,1.346,0,0,0,1.4,1.532,1.99,1.99,0,0,0,1.176-.392L112.029-3a1.552,1.552,0,0,1-.869.292c-.477,0-.763-.271-.763-.926,0-.777.278-1.9,1.226-1.9a1.02,1.02,0,0,1,.734.278l.349-.406A1.5,1.5,0,0,0,111.616-6.083ZM117.795-6h-.677l-1.44,3.257L115.151-6h-.684l.72,3.756h.242a1.592,1.592,0,0,1-1.361,1l.028.513a2.286,2.286,0,0,0,1.96-1.482Z" transform="translate(61.378 337.372)" fill="#fff"/>
  </g>
</svg>
